<svg width="95" height="28" viewBox="0 0 95 28" fill="none" xmlns="http://www.w3.org/2000/svg">
<g clip-path="url(#clip0_2813_3573)">
<path fill-rule="evenodd" clip-rule="evenodd" d="M-0.333374 0H1.99996V28H-0.333374V0ZM4.33329 0H8.99996V28H4.33329V0ZM13.6666 0H16V28H13.6666V0ZM18.3333 0H25.3333V28H18.3333V0ZM27.6666 0H30V28H27.6666V0ZM34.6666 0H37V28H34.6666V0ZM39.3333 0H41.6666V28H39.3333V0ZM44 0H46.3333V28H44V0Z" fill="#444444"/>
<path fill-rule="evenodd" clip-rule="evenodd" d="M48.6666 0H51V28H48.6666V0ZM53.3333 0H58V28H53.3333V0ZM62.6666 0H65V28H62.6666V0ZM67.3333 0H74.3333V28H67.3333V0ZM76.6666 0H79V28H76.6666V0ZM83.6666 0H86V28H83.6666V0ZM88.3333 0H90.6666V28H88.3333V0ZM93 0H95.3333V28H93V0Z" fill="#444444"/>
</g>
<defs>
<clipPath id="clip0_2813_3573">
<rect width="95" height="28" fill="white"/>
</clipPath>
</defs>
</svg>
