<svg width="22" height="22" viewBox="0 0 22 22" fill="none" xmlns="http://www.w3.org/2000/svg">
<g clip-path="url(#clip0_3156_14259)">
<path d="M3.15333 16.1333C2.76222 16.5244 2.56667 16.9767 2.56667 17.49C2.56667 18.0033 2.76222 18.4556 3.15333 18.8467C3.54444 19.2378 3.99667 19.4333 4.51 19.4333C5.02333 19.4333 5.47556 19.2378 5.86667 18.8467C6.25778 18.4556 6.45333 18.0033 6.45333 17.49C6.45333 16.9767 6.25778 16.5244 5.86667 16.1333C5.47556 15.7422 5.02333 15.5467 4.51 15.5467C3.99667 15.5467 3.54444 15.7422 3.15333 16.1333ZM4.98667 17.9667C4.84 18.0644 4.68111 18.1133 4.51 18.1133C4.33889 18.1133 4.19222 18.0522 4.07 17.93C3.94778 17.8078 3.88667 17.6611 3.88667 17.49C3.88667 17.3189 3.94778 17.1722 4.07 17.05C4.19222 16.9278 4.33889 16.8667 4.51 16.8667C4.68111 16.8667 4.82778 16.9278 4.95 17.05C5.07222 17.1722 5.13333 17.3189 5.13333 17.49C5.13333 17.6611 5.08444 17.82 4.98667 17.9667ZM21.4133 5.79333L16.2067 0.586668C15.8156 0.195557 15.3511 0 14.8133 0C14.2756 0 13.8111 0.195557 13.42 0.586668L7.92 6.01333L8.72667 6.89333C9.80222 6.84445 10.8044 7.06445 11.7333 7.55333L6.01333 13.2733C5.23111 12.98 4.41222 12.9189 3.55667 13.09C2.70111 13.2611 1.96778 13.6522 1.35667 14.2633C0.745556 14.8744 0.342222 15.5589 0.146667 16.3167C-0.0488889 17.0744 -0.0488889 17.8444 0.146667 18.6267C0.342222 19.4089 0.733333 20.0933 1.32 20.68C1.76 21.12 2.24889 21.45 2.78667 21.67C3.32444 21.89 3.89889 22 4.51 22C5.12111 22 5.69556 21.89 6.23333 21.67C6.77111 21.45 7.26 21.12 7.7 20.68C8.33556 20.0444 8.73889 19.2989 8.91 18.4433C9.08111 17.5878 9.02 16.7689 8.72667 15.9867L14.4467 10.2667C14.9356 11.1956 15.1556 12.1978 15.1067 13.2733L15.9867 14.08L21.4133 8.58C21.8044 8.23778 22 7.78556 22 7.22333C22 6.66111 21.8044 6.18445 21.4133 5.79333ZM6.82 19.8C6.18444 20.3867 5.41444 20.68 4.51 20.68C3.60556 20.68 2.84778 20.3744 2.23667 19.7633C1.62556 19.1522 1.32 18.3944 1.32 17.49C1.32 16.5856 1.62556 15.8278 2.23667 15.2167C2.84778 14.6056 3.60556 14.3 4.51 14.3C5.41444 14.3 6.17222 14.6056 6.78333 15.2167C7.39444 15.8278 7.7 16.5856 7.7 17.49C7.7 18.3944 7.40667 19.1644 6.82 19.8ZM8.14 14.8133C7.99333 14.6178 7.84667 14.4467 7.7 14.3C7.55333 14.1533 7.38222 14.0067 7.18667 13.86L12.8333 8.28667C13.1756 8.58 13.4689 8.87333 13.7133 9.16667L8.14 14.8133ZM14.2267 7.77333C13.0533 6.64889 11.6844 5.96445 10.12 5.72L12.8333 3.00667L18.9933 9.16667L16.28 11.88C16.0356 10.3156 15.3511 8.94667 14.2267 7.77333ZM20.5333 7.7L19.9467 8.28667L13.7133 2.05333L14.3 1.46667C14.4467 1.36889 14.6178 1.32 14.8133 1.32C15.0089 1.32 15.1556 1.36889 15.2533 1.46667L20.5333 6.74667C20.6311 6.84445 20.68 6.99111 20.68 7.18667C20.68 7.38222 20.6311 7.55333 20.5333 7.7Z" fill="#050B20"/>
</g>
<defs>
<clipPath id="clip0_3156_14259">
<rect width="22" height="22" fill="white" transform="matrix(1 0 0 -1 0 22)"/>
</clipPath>
</defs>
</svg>
