<svg width="100" height="100" viewBox="0 0 100 100" fill="none" xmlns="http://www.w3.org/2000/svg">
<g clip-path="url(#clip0_2241_11676)">
<path d="M85.3448 85.3553C104.871 65.8291 104.871 34.1709 85.3448 14.6447C65.8186 -4.88155 34.1604 -4.88156 14.6341 14.6447C-4.89207 34.1709 -4.89207 65.8291 14.6341 85.3553C34.1604 104.882 65.8186 104.882 85.3448 85.3553Z" fill="#FF3F5B"/>
<path fill-rule="evenodd" clip-rule="evenodd" d="M65.8564 29.2795H58.9211V25.5859C58.9211 25.0679 58.7153 24.5712 58.349 24.2049C57.9828 23.8386 57.486 23.6328 56.968 23.6328H43.032C42.514 23.6328 42.0172 23.8386 41.651 24.2049C41.2847 24.5712 41.0789 25.0679 41.0789 25.5859V29.2795H34.1436C32.7532 29.2811 31.4203 29.8341 30.4372 30.8172C29.454 31.8004 28.901 33.1333 28.8994 34.5236V37.8145C28.8994 38.3325 29.1052 38.8292 29.4715 39.1955C29.8378 39.5618 30.3345 39.7676 30.8525 39.7676H31.6924V68.9297C31.6946 70.9016 32.4789 72.792 33.8732 74.1863C35.2676 75.5807 37.158 76.365 39.1299 76.3672H60.8701C62.8421 76.3652 64.7327 75.581 66.1271 74.1867C67.5216 72.7924 68.306 70.9018 68.3082 68.9299V39.7674H69.148C69.666 39.7674 70.1628 39.5616 70.5291 39.1953C70.8954 38.829 71.1012 38.3323 71.1012 37.8143V34.5234C71.0995 33.1332 70.5465 31.8003 69.5634 30.8172C68.5804 29.8342 67.2475 29.2811 65.8572 29.2795H65.8564ZM44.9852 27.5391H55.0148V29.2799H44.9852V27.5391ZM32.8057 34.5234C32.8103 34.1701 32.9528 33.8325 33.2027 33.5827C33.4526 33.3329 33.7902 33.1905 34.1436 33.1859H65.8564C66.2098 33.1906 66.5474 33.333 66.7973 33.583C67.0471 33.8329 67.1895 34.1705 67.1941 34.5238V35.8617H32.8057V34.5234ZM64.402 68.9295C64.401 69.8659 64.0285 70.7636 63.3664 71.4257C62.7043 72.0877 61.8065 72.4601 60.8701 72.4609H39.1299C38.1936 72.4601 37.2958 72.0878 36.6337 71.4257C35.9715 70.7637 35.5991 69.866 35.598 68.9297V39.7674H64.402V68.9295ZM48.0469 66.9844V45.2439C48.0469 44.7259 48.2527 44.2292 48.6189 43.8629C48.9852 43.4966 49.482 43.2908 50 43.2908C50.518 43.2908 51.0148 43.4966 51.3811 43.8629C51.7474 44.2292 51.9531 44.7259 51.9531 45.2439V66.9844C51.9531 67.5024 51.7474 67.9992 51.3811 68.3654C51.0148 68.7317 50.518 68.9375 50 68.9375C49.482 68.9375 48.9852 68.7317 48.6189 68.3654C48.2527 67.9992 48.0469 67.5024 48.0469 66.9844ZM39.8693 66.9844V45.2439C39.8693 44.7259 40.0751 44.2292 40.4414 43.8629C40.8077 43.4966 41.3045 43.2908 41.8225 43.2908C42.3405 43.2908 42.8372 43.4966 43.2035 43.8629C43.5698 44.2292 43.7756 44.7259 43.7756 45.2439V66.9844C43.7756 67.5024 43.5698 67.9992 43.2035 68.3654C42.8372 68.7317 42.3405 68.9375 41.8225 68.9375C41.3045 68.9375 40.8077 68.7317 40.4414 68.3654C40.0751 67.9992 39.8693 67.5024 39.8693 66.9844ZM56.2244 66.9844V45.2439C56.2244 44.7259 56.4302 44.2292 56.7965 43.8629C57.1628 43.4966 57.6595 43.2908 58.1775 43.2908C58.6955 43.2908 59.1923 43.4966 59.5586 43.8629C59.9249 44.2292 60.1307 44.7259 60.1307 45.2439V66.9844C60.1307 67.5024 59.9249 67.9992 59.5586 68.3654C59.1923 68.7317 58.6955 68.9375 58.1775 68.9375C57.6595 68.9375 57.1628 68.7317 56.7965 68.3654C56.4302 67.9992 56.2244 67.5024 56.2244 66.9844Z" fill="white"/>
</g>
<defs>
<clipPath id="clip0_2241_11676">
<rect width="100" height="100" fill="white"/>
</clipPath>
</defs>
</svg>
