<svg width="51" height="51" viewBox="0 0 51 51" fill="none" xmlns="http://www.w3.org/2000/svg">
<g clip-path="url(#clip0_2749_8212)">
<path d="M13.2479 37.196C9.85425 37.196 6.83561 35.0231 5.73937 31.7882L5.66524 31.5444C5.40668 30.6877 5.29837 29.9673 5.29837 29.2465V14.793L0.155623 31.9598C-0.505777 34.4847 1.00145 37.1025 3.5303 37.8L36.3102 46.5787C36.7089 46.6824 37.1192 46.7351 37.5312 46.7355C39.6424 46.7355 41.5716 45.3343 42.1123 43.2692L44.0221 37.196H13.2479Z" fill="#ECEFF1"/>
<path d="M50.8756 4.86762V29.2464C50.8756 31.875 48.7345 34.0161 46.1059 34.0161H13.2477C13.0358 34.0161 12.8239 33.9948 12.6329 33.9734C10.4072 33.6982 8.66911 31.875 8.49939 29.628C8.47803 29.5007 8.47803 29.3733 8.47803 29.2464V4.86762C8.47803 2.23901 10.6191 0.0979004 13.2477 0.0979004H46.1059C48.7345 0.0979004 50.8756 2.23901 50.8756 4.86762Z" fill="#ECEFF1"/>
<path d="M23.317 10.6974C23.317 13.0388 21.419 14.9373 19.0775 14.9373C16.7358 14.9373 14.8376 13.0388 14.8376 10.6974C14.8376 8.35597 16.7358 6.45752 19.0775 6.45752C21.419 6.45752 23.317 8.35607 23.317 10.6974Z" fill="#989898"/>
<path d="M50.8755 23.2894V29.2466C50.8755 31.8751 48.7344 34.0163 46.1058 34.0163H13.2476C13.0357 34.0163 12.8238 33.9948 12.6328 33.9736L34.4676 12.1391C35.9092 10.6974 38.2832 10.6974 39.7248 12.1391L50.8755 23.2894Z" fill="#A4A4A4"/>
<path d="M38.2835 34.016H13.2479C13.036 34.016 12.8241 33.9947 12.6331 33.9733C10.4073 33.6981 8.66923 31.8749 8.49951 29.6279L18.5688 19.5582C20.0104 18.117 22.3845 18.117 23.826 19.5582L38.2835 34.016Z" fill="#DADADA"/>
</g>
<defs>
<clipPath id="clip0_2749_8212">
<rect width="50.8757" height="50.8757" fill="white"/>
</clipPath>
</defs>
</svg>
