<svg width="24" height="24" viewBox="0 0 24 24" fill="none" xmlns="http://www.w3.org/2000/svg">
<path d="M8.402 17.6322C7.85457 17.6316 7.32968 17.4141 6.94241 17.0272C6.55513 16.6403 6.33706 16.1156 6.336 15.5682V8.43416C6.33626 7.88631 6.55402 7.36097 6.94141 6.97357C7.3288 6.58618 7.85414 6.36843 8.402 6.36816H15.536C16.0839 6.36843 16.6092 6.58618 16.9966 6.97357C17.384 7.36097 17.6017 7.88631 17.602 8.43416V15.5682C17.6009 16.1156 17.3829 16.6403 16.9956 17.0272C16.6083 17.4141 16.0834 17.6316 15.536 17.6322H8.402Z" fill="#6A453B"/>
<path d="M11.967 9.85938C11.5435 9.85938 11.1296 9.98494 10.7775 10.2202C10.4254 10.4555 10.151 10.7898 9.98896 11.181C9.82692 11.5723 9.78452 12.0028 9.86713 12.4181C9.94974 12.8334 10.1536 13.2149 10.4531 13.5143C10.7525 13.8137 11.134 14.0176 11.5493 14.1002C11.9646 14.1828 12.3951 14.1404 12.7863 13.9784C13.1775 13.8164 13.5119 13.5419 13.7472 13.1899C13.9824 12.8378 14.108 12.4238 14.108 12.0004C14.1072 11.4328 13.8814 10.8887 13.48 10.4873C13.0787 10.086 12.5346 9.86017 11.967 9.85938Z" fill="#6A453B"/>
<path d="M4.17854e-08 11.967C0.000197831 9.59996 0.702302 7.28613 2.01753 5.31811C3.33275 3.35009 5.20203 1.81628 7.38897 0.910632C9.57591 0.00498557 11.9823 -0.23182 14.3038 0.230162C16.6253 0.692144 18.7577 1.83216 20.4314 3.50606C22.105 5.17995 23.2446 7.31254 23.7062 9.63415C24.1678 11.9557 23.9306 14.3621 23.0246 16.5489C22.1186 18.7357 20.5845 20.6047 18.6162 21.9196C16.648 23.2345 14.334 23.9362 11.967 23.936C10.3953 23.9359 8.8391 23.6262 7.38712 23.0246C5.93515 22.423 4.61588 21.5414 3.50464 20.43C2.3934 19.3185 1.51195 17.9991 0.910627 16.547C0.3093 15.095 -0.000131286 13.5387 4.17854e-08 11.967Z" fill="#6A453B"/>
</svg>
