<svg width="24" height="24" viewBox="0 0 24 24" fill="none" xmlns="http://www.w3.org/2000/svg">
<path d="M11.915 23.83C18.4955 23.83 23.83 18.5424 23.83 12.02C23.83 5.49748 18.4955 0.209961 11.915 0.209961C5.33453 0.209961 0 5.49748 0 12.02C0 18.5424 5.33453 23.83 11.915 23.83Z" fill="#007AB9"/>
<path d="M16.185 17.8397V13.2977C16.185 12.1567 15.774 11.3777 14.743 11.3777C14.4231 11.3788 14.1113 11.4784 13.85 11.6631C13.5887 11.8478 13.3908 12.1085 13.283 12.4097C13.2093 12.6313 13.1771 12.8645 13.188 13.0977V17.8397H10.34C10.34 17.8397 10.379 10.1457 10.34 9.34875H13.188V10.5567C13.183 10.5667 13.174 10.5757 13.169 10.5847H13.188V10.5567C13.448 10.1119 13.8244 9.7464 14.2768 9.49969C14.7291 9.25298 15.2402 9.13441 15.755 9.15675C17.629 9.15675 19.034 10.3697 19.034 12.9767V17.8457L16.185 17.8397ZM5.91802 17.8397V9.34875H8.76602V17.8397H5.91802ZM7.31802 8.19075C7.11511 8.20426 6.9116 8.17558 6.72032 8.10651C6.52905 8.03745 6.35416 7.9295 6.20669 7.78948C6.05921 7.64946 5.94235 7.4804 5.86347 7.29296C5.78459 7.10552 5.74541 6.90377 5.74839 6.70043C5.75137 6.49709 5.79645 6.29658 5.88079 6.11153C5.96512 5.92648 6.08689 5.76092 6.23841 5.62528C6.38992 5.48963 6.5679 5.38686 6.76111 5.32343C6.95433 5.26 7.15859 5.2373 7.36102 5.25675C7.56491 5.23967 7.77012 5.26525 7.96358 5.33187C8.15704 5.39848 8.33449 5.50467 8.48464 5.64367C8.63479 5.78266 8.75433 5.95141 8.83565 6.13916C8.91697 6.32691 8.95828 6.52954 8.95696 6.73414C8.95564 6.93875 8.9117 7.14083 8.82795 7.32751C8.74421 7.51419 8.62249 7.68138 8.47056 7.81842C8.31862 7.95545 8.13981 8.05933 7.9455 8.12344C7.7512 8.18755 7.54567 8.21047 7.34202 8.19075H7.31802Z" fill="#F1F2F2"/>
</svg>
