<svg width="24" height="24" viewBox="0 0 24 24" fill="none" xmlns="http://www.w3.org/2000/svg">
<path d="M11.972 0C14.3398 0 16.6545 0.702146 18.6233 2.01765C20.5921 3.33315 22.1266 5.20292 23.0327 7.39051C23.9388 9.57811 24.1759 11.9853 23.714 14.3076C23.252 16.63 22.1118 18.7632 20.4375 20.4375C18.7632 22.1118 16.63 23.252 14.3076 23.714C11.9853 24.1759 9.57811 23.9388 7.39051 23.0327C5.20292 22.1266 3.33315 20.5921 2.01765 18.6233C0.702146 16.6545 0 14.3398 0 11.972C0 8.79683 1.26133 5.7517 3.50652 3.50652C5.7517 1.26133 8.79683 0 11.972 0Z" fill="#C4302B"/>
<path d="M7.69999 17.9552C7.06074 17.9675 6.44271 17.7257 5.98152 17.2829C5.52033 16.8401 5.25364 16.2324 5.23999 15.5932V13.5932C5.25312 12.9537 5.51961 12.3456 5.98089 11.9025C6.44217 11.4594 7.0605 11.2176 7.69999 11.2302H16.24C16.557 11.2234 16.8722 11.2792 17.1676 11.3943C17.463 11.5094 17.7328 11.6816 17.9617 11.901C18.1905 12.1205 18.3738 12.3829 18.5012 12.6732C18.6286 12.9636 18.6975 13.2762 18.704 13.5932V15.5932C18.6903 16.2331 18.4231 16.8414 17.961 17.2843C17.499 17.7273 16.8799 17.9686 16.24 17.9552H7.69999ZM8.54799 9.73616V7.65916L7.48399 4.49316H8.38399L8.96299 6.59316H9.01999L9.57199 4.49316H10.479L9.43999 7.56116V9.73616H8.54799ZM10.808 9.42616C10.7013 9.34127 10.6161 9.23254 10.5591 9.1087C10.5022 8.98486 10.4751 8.84939 10.48 8.71316V6.89316C10.4769 6.76521 10.5061 6.63854 10.5651 6.52491C10.624 6.41128 10.7106 6.31437 10.817 6.24316C11.0844 6.07072 11.3992 5.98644 11.717 6.00216C12.0203 5.98909 12.3192 6.07895 12.565 6.25716C12.6683 6.33242 12.7521 6.43135 12.8094 6.54566C12.8666 6.65997 12.8956 6.78633 12.894 6.91416V8.72816C12.9001 8.86318 12.874 8.99771 12.8178 9.12064C12.7616 9.24358 12.677 9.35139 12.571 9.43516C12.3157 9.63151 12.0009 9.73455 11.679 9.72716C11.3623 9.73143 11.054 9.62537 10.807 9.42716L10.808 9.42616ZM13.819 9.52616C13.7264 9.38136 13.6829 9.2106 13.695 9.03916V5.99316H14.4V8.78816C14.3951 8.8533 14.4116 8.91826 14.447 8.97316C14.4642 8.99382 14.4863 9.00992 14.5112 9.02003C14.5362 9.03015 14.5632 9.03397 14.59 9.03116C14.6623 9.02446 14.7315 8.99819 14.79 8.95516C14.8717 8.8991 14.9451 8.83177 15.008 8.75516V5.99316H15.715V9.63716H15.006V9.23716C14.8904 9.37305 14.752 9.48776 14.597 9.57616C14.4748 9.65897 14.3346 9.71142 14.188 9.72916C14.1149 9.72667 14.0434 9.707 13.9792 9.67173C13.9151 9.63646 13.8602 9.58659 13.819 9.52616Z" fill="white"/>
<path d="M16.128 13.9743C16.0345 13.9654 15.9411 13.9934 15.868 14.0523C15.8387 14.0873 15.8168 14.1278 15.8034 14.1714C15.79 14.215 15.7854 14.2609 15.79 14.3063V14.5923H16.461V14.3063C16.4652 14.2608 16.4603 14.2148 16.4466 14.1712C16.4328 14.1276 16.4105 14.0872 16.381 14.0523C16.3103 13.9939 16.2193 13.9658 16.128 13.9743Z" fill="white"/>
</svg>
